<svg width="18" height="19" viewBox="0 0 18 19" fill="none" xmlns="http://www.w3.org/2000/svg">
<path d="M13.2295 3.36064L15.306 5.43615L13.2295 3.36064ZM14.5649 1.53219L8.95009 7.14695C8.65998 7.43666 8.46212 7.80577 8.38146 8.20775L7.86282 10.8039L10.4589 10.2842C10.8609 10.2038 11.2295 10.0068 11.5197 9.71659L17.1345 4.10182C17.3032 3.9331 17.4371 3.73279 17.5284 3.51234C17.6197 3.29189 17.6667 3.05562 17.6667 2.81701C17.6667 2.57839 17.6197 2.34212 17.5284 2.12167C17.4371 1.90122 17.3032 1.70091 17.1345 1.53219C16.9658 1.36346 16.7655 1.22962 16.545 1.13831C16.3246 1.047 16.0883 1 15.8497 1C15.6111 1 15.3748 1.047 15.1543 1.13831C14.9339 1.22962 14.7336 1.36346 14.5649 1.53219V1.53219Z" stroke="#6E6893" stroke-width="2" stroke-linecap="round" stroke-linejoin="round"/>
<path d="M15.706 12.7647V15.7059C15.706 16.2259 15.4994 16.7246 15.1317 17.0924C14.764 17.4601 14.2653 17.6667 13.7452 17.6667H2.9608C2.44077 17.6667 1.94203 17.4601 1.57431 17.0924C1.20658 16.7246 1 16.2259 1 15.7059V4.92144C1 4.4014 1.20658 3.90266 1.57431 3.53494C1.94203 3.16722 2.44077 2.96063 2.9608 2.96063H5.90201" stroke="#6E6893" stroke-width="2" stroke-linecap="round" stroke-linejoin="round"/>
</svg>
