<svg width="20" height="20" viewBox="0 0 20 20" fill="none" xmlns="http://www.w3.org/2000/svg">
<path d="M14.1667 8.33333V5.83333C14.1667 5.21674 13.9499 4.62669 13.567 4.1743C13.1841 3.72191 12.6644 3.44167 12.1167 3.38333C11.5689 3.325 11.0387 3.50356 10.6289 3.88318C10.2192 4.2628 9.96553 4.81531 9.925 5.43333V5.83333H8.33333V5.44167C8.38917 4.33043 8.72083 3.26209 9.28327 2.35487C9.84572 1.44764 10.6151 0.741919 11.4925 0.316667C12.37 -0.108585 13.3194 -0.356285 14.2225 -0.390581C15.1256 -0.424877 16.0215 -0.244699 16.7958 0.138333C17.5702 0.521365 18.1932 1.09713 18.6097 1.80305C19.0262 2.50897 19.2208 3.31603 19.1733 4.125V4.95833C19.1733 6.14611 18.7183 7.28668 17.9233 8.16833C17.1283 9.04999 16.0575 9.59167 14.925 9.675V11.6667C14.925 12.2833 15.1417 12.8733 15.5242 13.3257C15.9067 13.778 16.4264 14.0583 16.9742 14.1167C17.5219 14.175 18.0521 13.9964 18.4619 13.6168C18.8716 13.2372 19.1253 12.6847 19.1658 12.0667V11.6667H20.8333V12.0583C20.7775 13.1696 20.4458 14.2379 19.8834 15.1451C19.3209 16.0524 18.5516 16.7581 17.6742 17.1833C16.7967 17.6086 15.8473 17.8563 14.9442 17.8906C14.0411 17.9249 13.1452 17.7447 12.3708 17.3617C11.5965 16.9786 10.9735 16.4029 10.557 15.697C10.1405 14.991 9.94592 13.184 9.98333 12.975V12.5667H8.33333V12.9583C8.38917 14.0696 8.72083 15.1379 9.28327 16.0451C9.84572 16.9524 10.6151 17.6581 11.4925 18.0833C12.37 18.5086 13.3194 18.7563 14.2225 18.7906C15.1256 18.8249 16.0215 18.6447 16.7958 18.2617C17.5701 17.8786 18.1932 17.3029 18.6097 16.597C19.0262 15.891 19.2208 14.684 19.1733 13.875V13.0417C19.1733 11.8539 18.7183 10.7133 17.9233 9.83167C17.1283 8.95 16.0575 8.40833 14.925 8.325V8.33333H14.1667ZM5.83333 16.6667H10.8333V13.3333H5.83333V16.6667ZM5.83333 10H10.8333V6.66667H5.83333V10ZM2.5 16.6667H5V13.3333H2.5V16.6667ZM2.5 10H5V6.66667H2.5V10Z" fill="#6E6893"/>
</svg>